<svg width="18" height="21" viewBox="0 0 18 21" fill="none" xmlns="http://www.w3.org/2000/svg">
<path d="M17.6223 11.427L11.1937 17.9895C10.9446 18.2479 10.6152 18.375 10.2857 18.375C9.95625 18.375 9.62759 18.2469 9.37687 17.9905C8.87464 17.4778 8.87464 16.6473 9.37687 16.1346L13.6125 11.8125H1.28571C0.575756 11.8125 6.10352e-05 11.226 6.10352e-05 10.5C6.10352e-05 9.77407 0.575756 9.18755 1.28571 9.18755H13.6125L9.37768 4.8645C8.87544 4.35181 8.87544 3.52124 9.37768 3.00854C9.87991 2.49585 10.6935 2.49585 11.1958 3.00854L17.6243 9.57104C18.1245 10.0858 18.1246 10.9143 17.6223 11.427Z" fill="white"/>
</svg>
