<svg width="22" height="30" viewBox="0 0 22 30" fill="none" xmlns="http://www.w3.org/2000/svg">
<path d="M9.60352 28.4224C6.68874 24.8691 0.205872 16.257 0.205872 11.4197C0.205872 5.55063 5.00577 0.792969 10.9269 0.792969C16.8458 0.792969 21.6479 5.55063 21.6479 11.4197C21.6479 16.257 15.1148 24.8691 12.2503 28.4224C11.5635 29.2692 10.2903 29.2692 9.60352 28.4224ZM10.9269 14.9619C12.898 14.9619 14.5006 13.3734 14.5006 11.4197C14.5006 9.46591 12.898 7.87744 10.9269 7.87744C8.9558 7.87744 7.35322 9.46591 7.35322 11.4197C7.35322 13.3734 8.9558 14.9619 10.9269 14.9619Z" fill="#F3932C"/>
</svg>
