<svg width="22" height="18" viewBox="0 0 22 18" fill="none" xmlns="http://www.w3.org/2000/svg">
<path d="M19.6377 0.959961C20.7475 0.959961 21.6479 1.88721 21.6479 3.03107C21.6479 3.6826 21.3506 4.29531 20.8439 4.68795L11.731 11.7297C11.2536 12.0965 10.6002 12.0965 10.1228 11.7297L1.00995 4.68795C0.503757 4.29531 0.205872 3.6826 0.205872 3.03107C0.205872 1.88721 1.10585 0.959961 2.21606 0.959961H19.6377ZM9.31875 12.8343C10.2736 13.5721 11.5802 13.5721 12.5351 12.8343L21.6479 5.79255V14.7673C21.6479 16.2905 20.446 17.5288 18.9677 17.5288H2.88613C1.40571 17.5288 0.205872 16.2905 0.205872 14.7673V5.79255L9.31875 12.8343Z" fill="#F3932C"/>
</svg>
