<svg width="22" height="22" viewBox="0 0 22 22" fill="none" xmlns="http://www.w3.org/2000/svg">
<path d="M21.6165 16.5611L20.6427 20.7823C20.5059 21.379 19.9813 21.7966 19.3669 21.7966C8.80026 21.7957 0.205872 13.2026 0.205872 2.63703C0.205872 2.02311 0.623403 1.49798 1.22028 1.36188L5.44208 0.38824C6.05692 0.245775 6.68517 0.564877 6.94066 1.14705L8.88905 5.69069C9.11681 6.22588 8.96319 6.84943 8.51294 7.21711L6.25796 9.02745C7.68115 11.9262 10.0383 14.283 12.9383 15.7068L14.7845 13.4538C15.1484 13.0024 15.7767 12.8462 16.312 13.078L20.8563 15.0257C21.4029 15.3132 21.7589 15.9497 21.6165 16.5611Z" fill="#F3932C"/>
</svg>
