<svg width="28" height="23" viewBox="0 0 28 23" fill="none" xmlns="http://www.w3.org/2000/svg">
<path d="M25.375 0.373047C26.8242 0.373047 28 1.60649 28 3.12807C28 3.99475 27.6117 4.80978 26.95 5.33209L15.05 14.6992C14.4266 15.187 13.5734 15.187 12.95 14.6992L1.05 5.33209C0.388992 4.80978 0 3.99475 0 3.12807C0 1.60649 1.17523 0.373047 2.625 0.373047H25.375ZM11.9 16.1685C13.1469 17.15 14.8531 17.15 16.1 16.1685L28 6.80143V18.7399C28 20.766 26.4305 22.4132 24.5 22.4132H3.5C1.5668 22.4132 0 20.766 0 18.7399V6.80143L11.9 16.1685Z" fill="white"/>
</svg>
