<svg width="68" height="56" viewBox="0 0 68 56" fill="none" xmlns="http://www.w3.org/2000/svg">
<path d="M38.5093 37.0719C38.5093 38.6826 38.4933 40.0133 38.5147 41.3439C38.5307 42.4213 38.136 42.9893 36.96 42.8719C34.2373 42.5999 31.512 42.3199 28.7813 42.1386C27.4933 42.0533 27.0213 41.4559 27.1173 40.2453C27.144 39.8986 27.104 39.5466 27.1227 39.1973C27.2773 36.3866 26.824 34.0613 24.8213 31.6026C19.5947 25.1759 22.632 16.0693 30.304 13.9466C36.0853 12.3466 42.2427 15.7573 43.6053 21.6079C44.1173 23.7973 45.1653 25.5626 46.2747 27.3999C46.6933 28.0933 46.848 28.9439 47.1253 29.7226C46.3493 29.9759 45.5733 30.2293 44.7947 30.4799C44.6373 30.5306 44.4693 30.5546 44.1067 30.6373C44.1067 31.6506 44.1067 32.6826 44.1067 33.7173C44.104 36.6666 43.7067 37.0719 40.8267 37.0773C40.1413 37.0746 39.4533 37.0719 38.5093 37.0719Z" fill="#FE6601"/>
<path d="M61.68 30.0105C63.064 30.0105 64.168 29.9492 65.2613 30.0239C67.016 30.1465 67.744 31.4612 66.8213 32.9519C64.984 35.9252 63.088 38.8639 61.1493 41.7705C60.1707 43.2372 58.776 43.2132 57.7653 41.7305C55.8613 38.9385 53.992 36.1225 52.1733 33.2745C50.9973 31.4345 51.7627 30.1225 53.968 30.0745C54.9467 30.0532 55.9253 30.0719 57.0107 30.0719C57.4053 26.3279 56.8453 22.8719 55.52 19.5359C49.8133 5.18921 32.0053 0.293207 19.736 9.68787C19.504 9.86387 19.2853 10.0585 19.0533 10.2319C17.8987 11.0905 16.7333 11.1465 15.824 9.96521C14.9387 8.81587 15.1787 7.66121 16.288 6.73587C19.5627 4.00254 23.2693 2.10121 27.416 1.10654C44.8667 -3.07479 61.4587 9.88254 61.6827 27.8505C61.688 28.4799 61.68 29.1119 61.68 30.0105Z" fill="#FE6601"/>
<path d="M6.22933 26.0317C5.11733 26.0317 4.08533 26.0638 3.056 26.0264C0.968 25.9491 0.178667 24.6211 1.264 22.8904C3.08533 19.9784 4.96267 17.0958 6.87733 14.2451C7.78933 12.8851 9.25867 12.8638 10.1787 14.2238C12.136 17.1198 14.0373 20.0531 15.8747 23.0238C16.856 24.6131 16.0987 25.9278 14.2427 26.0211C13.1547 26.0771 12.064 26.0317 10.8427 26.0317C10.4587 35.1144 13.76 42.1917 21.032 47.2397C29.12 52.8557 39.9573 52.5384 47.872 46.6611C48.2 46.4184 48.5093 46.1517 48.84 45.9144C50.1387 44.9757 51.4293 45.0531 52.2453 46.1091C53.032 47.1278 52.7867 48.4291 51.5387 49.4504C47.08 53.0958 41.9707 55.2504 36.232 55.6237C21.072 56.6051 8.57333 46.3438 6.49867 31.2878C6.26933 29.6264 6.31733 27.9357 6.22933 26.0317Z" fill="#FE6601"/>
</svg>
