<svg width="68" height="68" viewBox="0 0 68 68" fill="none" xmlns="http://www.w3.org/2000/svg">
<g clip-path="url(#clip0_149_566)">
<g filter="url(#filter0_d_149_566)">
<path d="M30.8969 17.5327C32.8757 17.5327 35.2875 17.5327 37.5791 17.5327C36.9943 21.6558 36.1941 25.5748 38.7419 29.3352C40.5915 32.0643 42.1215 35.011 43.7489 37.8897C44.9752 40.0611 44.3201 41.2148 41.8245 41.2307C36.6339 41.267 31.4432 41.2647 26.2525 41.2307C23.7819 41.2148 23.0951 40.0022 24.3191 37.8556C26.0848 34.7594 28.0047 31.747 29.6389 28.585C30.3439 27.2227 30.6997 25.593 30.8493 24.0494C31.0488 21.9799 30.8969 19.8719 30.8969 17.5327ZM38.7056 31.4908C36.0785 32.9392 33.8867 32.2955 31.6676 31.3548C30.8629 31.0148 29.9381 30.2804 29.1811 31.6336C28.0092 33.7258 26.6651 35.7227 25.5 37.8194C24.65 39.3517 25.1464 40.2288 26.8691 40.247C31.6721 40.2991 36.4775 40.2946 41.2828 40.2561C42.8491 40.2425 43.4407 39.3222 42.6791 37.9531C41.4619 35.7658 40.0633 33.6804 38.7056 31.4908Z" fill="#FE6601"/>
<path d="M34.0363 5.93408C18.5096 5.94088 5.85253 18.6342 5.93187 34.1224C6.0112 49.6354 18.5391 62.0953 34.0272 62.0681C49.7012 62.0386 62.1089 49.5924 62.0681 33.9433C62.0273 18.4302 49.5131 5.92728 34.0363 5.93408ZM55.5515 45.2222C55.2183 45.8093 54.3252 46.4349 53.6883 46.4372C42.1827 46.5074 30.6748 46.487 19.1692 46.4802C18.9833 46.4802 18.7975 46.4145 18.2739 46.317C19.8288 44.9004 21.2251 43.6287 22.3584 42.5974C22.1363 40.7931 21.9481 39.2496 21.7577 37.7082C18.8949 40.1812 15.8304 42.8286 12.7455 45.492C6.87707 36.1057 9.7716 22.2042 18.8972 14.994C28.8796 7.10822 41.8903 9.02808 48.212 14.5928C45.6643 16.8164 43.1324 19.0241 40.6028 21.2341C38.6421 22.9477 38.4109 24.9061 39.9727 27.277C43.7988 23.9541 47.6113 20.6425 51.5485 17.2244C56.3335 22.2972 58.5163 28.2041 58.3281 34.986C58.2307 38.599 57.3489 42.0648 55.5515 45.2222Z" fill="#FE6601"/>
</g>
</g>
<defs>
<filter id="filter0_d_149_566" x="1.9315" y="5.93408" width="64.1367" height="64.1343" filterUnits="userSpaceOnUse" color-interpolation-filters="sRGB">
<feFlood flood-opacity="0" result="BackgroundImageFix"/>
<feColorMatrix in="SourceAlpha" type="matrix" values="0 0 0 0 0 0 0 0 0 0 0 0 0 0 0 0 0 0 127 0" result="hardAlpha"/>
<feOffset dy="4"/>
<feGaussianBlur stdDeviation="2"/>
<feComposite in2="hardAlpha" operator="out"/>
<feColorMatrix type="matrix" values="0 0 0 0 0 0 0 0 0 0 0 0 0 0 0 0 0 0 0.25 0"/>
<feBlend mode="normal" in2="BackgroundImageFix" result="effect1_dropShadow_149_566"/>
<feBlend mode="normal" in="SourceGraphic" in2="effect1_dropShadow_149_566" result="shape"/>
</filter>
<clipPath id="clip0_149_566">
<rect width="68" height="68" fill="white"/>
</clipPath>
</defs>
</svg>
