<svg width="28" height="38" viewBox="0 0 28 38" fill="none" xmlns="http://www.w3.org/2000/svg">
<path d="M12.2719 36.2347C8.46562 31.5747 0 20.2804 0 13.9364C0 6.23944 6.26792 0 14 0C21.7292 0 28 6.23944 28 13.9364C28 20.2804 19.4688 31.5747 15.7281 36.2347C14.8312 37.3452 13.1687 37.3452 12.2719 36.2347ZM14 18.5819C16.574 18.5819 18.6667 16.4987 18.6667 13.9364C18.6667 11.3741 16.574 9.29094 14 9.29094C11.426 9.29094 9.33333 11.3741 9.33333 13.9364C9.33333 16.4987 11.426 18.5819 14 18.5819Z" fill="white"/>
</svg>
