<svg width="41" height="72" viewBox="0 0 41 72" fill="none" xmlns="http://www.w3.org/2000/svg">
<path d="M9.44336 1.38721C9.44336 1.38721 9.85724 9.09742 19.686 11.216C19.6889 11.2189 18.6528 1.85318 9.44336 1.38721Z" fill="#FB760D"/>
<path d="M30.9995 10.8457C30.9995 10.8457 25.4716 11.1438 23.9492 18.1912C23.9492 18.1941 30.6667 17.4503 30.9995 10.8457Z" fill="#FB760D"/>
<path d="M24.8754 20.2113C24.4007 20.165 23.9463 20.1187 23.4919 20.0724C23.0028 20.0232 22.8089 19.7367 22.7828 19.262C22.5513 15.048 25.3934 11.1495 29.4916 10.0729C30.6927 9.75739 31.9054 9.67056 33.1384 9.85C33.7346 9.93683 33.9285 10.1365 33.9632 10.7385C34.2208 15.2043 30.8143 19.398 26.389 20.055C25.8854 20.1332 25.3732 20.1621 24.8754 20.2113ZM24.2097 18.7237C28.5684 19.2591 32.6579 15.5053 32.5161 11.2103C28.0793 10.6228 24.0129 14.5792 24.2097 18.7237Z" fill="#313131"/>
<path d="M36.2149 36.448C36.2149 36.448 33.422 39.4435 22.2445 36.448C11.0699 33.4525 9.32178 37.7793 9.32178 37.7793L18.6354 52.1954L18.8669 60.8087L25.0374 58.7132L24.8059 51.8453L36.2149 36.448Z" fill="#FB760D"/>
<path d="M20.1665 63.3408C20.1665 63.3408 14.1696 70.7529 20.178 71.2565C20.178 71.2565 26.0562 70.6748 20.1665 63.3408Z" fill="#FB760D"/>
<path d="M19.4371 28.3065C19.4371 23.2676 19.4371 18.3098 19.4371 13.2652C18.7164 13.2652 18.0074 13.3144 17.3099 13.2565C11.0496 12.7384 6.35233 7.47094 6.53756 1.19915C6.56071 0.397454 6.68516 0.252744 7.46949 0.131186C13.6718 -0.835485 19.7786 3.65346 20.6758 9.86157C20.7974 10.7096 20.8119 11.5749 20.8148 12.4345C20.8263 17.566 20.8206 22.6946 20.8206 27.826C20.8206 27.9534 20.8379 28.0778 20.8524 28.2746C21.0695 28.2862 21.2807 28.3065 21.4891 28.3065C27.3875 28.3065 33.2889 28.3065 39.1873 28.3065C40.1424 28.3065 40.2726 28.4338 40.2726 29.3773C40.2726 30.3295 40.3045 31.2846 40.2553 32.2339C40.2379 32.5899 40.1134 32.998 39.9051 33.2816C35.2483 39.5881 30.5741 45.8802 25.8941 52.1693C25.6394 52.5109 25.5179 52.8437 25.5237 53.272C25.5439 55.1417 25.515 57.0085 25.541 58.8782C25.5497 59.4396 25.3558 59.7493 24.8204 59.9432C21.8451 61.0228 18.8785 62.1313 15.9091 63.2253C15.1218 63.5147 14.7543 63.2629 14.7543 62.4236C14.7514 59.3441 14.7629 56.2676 14.7398 53.1881C14.7369 52.8697 14.6124 52.5022 14.4243 52.2475C9.75304 45.9294 5.06439 39.6229 0.396012 33.3019C0.176051 33.0038 0.0487037 32.5812 0.0284442 32.2079C-0.0207577 31.2209 0.00818529 30.2311 0.0110795 29.2413C0.0139737 28.483 0.19052 28.3065 0.95749 28.3065C6.85592 28.3065 12.7572 28.3065 18.6557 28.3065C18.8959 28.3065 19.1303 28.3065 19.4371 28.3065ZM1.37136 29.6957C1.37136 30.454 1.34242 31.1515 1.38584 31.8403C1.4061 32.1471 1.50739 32.4915 1.68684 32.7346C6.34943 39.0382 11.0207 45.3332 15.7036 51.6223C16.0075 52.0304 16.129 52.4385 16.1261 52.9392C16.1116 55.6135 16.1174 58.2906 16.1174 60.9649C16.1174 61.1762 16.1174 61.3874 16.1174 61.6161C16.2535 61.6016 16.3085 61.6045 16.3577 61.5871C18.8264 60.6639 21.2952 59.7348 23.7669 58.8232C24.0737 58.7103 24.1229 58.5251 24.1229 58.2385C24.1142 56.4441 24.0968 54.6468 24.1373 52.8524C24.146 52.4645 24.2849 52.0131 24.5165 51.7034C29.0807 45.5329 33.6362 39.3537 38.2785 33.244C39.167 32.0747 38.7792 30.9142 38.9239 29.6957C26.3688 29.6957 13.9149 29.6957 1.37136 29.6957ZM7.92099 1.45964C7.92099 1.70564 7.9181 1.86772 7.92099 2.0298C8.0686 7.4883 12.7486 11.957 18.2968 11.9425C19.495 11.9396 19.521 11.9367 19.3763 10.7877C18.8206 6.34219 16.404 3.37272 12.1871 1.90245C10.8326 1.43069 9.41441 1.28309 7.92099 1.45964Z" fill="#313131"/>
</svg>
