<svg width="28" height="29" viewBox="0 0 28 29" fill="none" xmlns="http://www.w3.org/2000/svg">
<path d="M27.9589 21.4788L26.6873 27.0011C26.5087 27.7818 25.8237 28.328 25.0214 28.328C11.2229 28.3269 0 17.0851 0 3.26294C0 2.4598 0.545231 1.7728 1.32466 1.59475L6.83768 0.321006C7.64057 0.134628 8.46096 0.552087 8.79458 1.3137L11.3389 7.25783C11.6363 7.95798 11.4357 8.77372 10.8477 9.25473L7.90309 11.6231C9.76155 15.4153 12.8397 18.4985 16.6266 20.3612L19.0374 17.4138C19.5126 16.8232 20.3331 16.6189 21.0321 16.9221L26.9662 19.4701C27.68 19.8462 28.1449 20.679 27.9589 21.4788Z" fill="white"/>
</svg>
