<svg width="76" height="76" viewBox="0 0 76 76" fill="none" xmlns="http://www.w3.org/2000/svg">
<g clip-path="url(#clip0_148_413)">
<path d="M9.02882 35.7378C9.04402 19.8082 22.0932 6.78684 38.033 6.79444C53.9524 6.80204 67.0016 19.8715 66.9839 35.791C66.9662 51.7054 53.8764 64.7723 37.9798 64.7368C22.035 64.7014 9.01362 51.6623 9.02882 35.7378ZM37.9874 8.94524C23.2307 8.97057 11.1467 21.1002 11.1847 35.8543C11.2227 50.5223 23.3422 62.5936 38.0228 62.5835C52.6984 62.5759 64.8052 50.4894 64.8382 35.8188C64.8686 21.0926 52.706 8.9199 37.9874 8.94524Z" fill="#FE6601"/>
<path d="M37.9873 8.94535C52.706 8.92002 64.8685 21.0927 64.8381 35.819C64.8052 50.4895 52.6984 62.5735 38.0228 62.5836C23.3421 62.5912 11.2227 50.5224 11.1847 35.8544C11.1467 21.1003 23.2307 8.97069 37.9873 8.94535ZM49.4025 40.0978C46.9883 46.6616 42.4409 51.3736 36.366 54.9254C45.2453 55.2243 53.0277 50.753 55.8119 41.3062C56.7897 37.9875 57.1824 34.5954 57.1723 30.9803C50.4285 31.1804 44.0977 32.1127 39.0007 36.7943C34.9068 40.5538 33.3792 45.4254 33.1791 51.1152C34.4913 50.6288 35.6212 50.2767 36.6953 49.803C41.7037 47.6015 45.7799 44.1764 49.4025 40.0978ZM18.924 23.5678C17.9487 32.7131 25.4296 41.3822 32.9131 39.8419C28.9383 37.4048 25.8299 34.2559 24.2719 29.7744C27.3929 33.088 30.8079 35.9051 35.3375 37.192C35.6339 27.9732 27.7577 22.9167 18.924 23.5678ZM43.3276 22.4911C42.5068 24.1479 41.534 25.7464 40.9108 27.4742C40.2775 29.2247 39.9912 31.0968 39.5073 33.1057C47.576 31.2969 49.7648 23.1168 47.2289 16.6467C37.4781 18.9976 35.0816 26.1518 36.9943 31.6592C38.1165 27.8719 40.0317 24.7027 43.3276 22.4911Z" fill="white"/>
<path d="M49.4025 40.0974C45.7799 44.1736 41.7037 47.6012 36.6953 49.8026C35.6187 50.2764 34.4913 50.6285 33.1791 51.1149C33.3817 45.425 34.9093 40.5534 39.0007 36.794C44.0952 32.1124 50.4285 31.1826 57.1723 30.98C57.1824 34.595 56.7897 37.9872 55.8119 41.3058C53.0277 50.7526 45.2453 55.224 36.366 54.925C42.4409 51.3733 46.9883 46.6638 49.4025 40.0974Z" fill="#FE6601"/>
<path d="M18.924 23.5677C27.7577 22.9167 35.6339 27.9707 35.3375 37.192C30.8079 35.9051 27.3929 33.088 24.2719 29.7744C25.8299 34.2559 28.9383 37.4048 32.9131 39.8419C25.4296 41.3821 17.9487 32.7156 18.924 23.5677Z" fill="#FE6601"/>
<path d="M43.3276 22.4908C40.0343 24.7024 38.1191 27.8716 36.9943 31.6615C35.0816 26.154 37.4781 18.9973 47.2289 16.6489C49.7648 23.1191 47.576 31.2992 39.5073 33.108C39.9912 31.0991 40.28 29.2244 40.9108 27.4764C41.534 25.7461 42.5068 24.1451 43.3276 22.4908Z" fill="#FE6601"/>
</g>
<defs>
<clipPath id="clip0_148_413">
<rect width="76" height="76" fill="white"/>
</clipPath>
</defs>
</svg>
