<svg width="116" height="17" viewBox="0 0 116 17" fill="none" xmlns="http://www.w3.org/2000/svg">
<g clip-path="url(#clip0_61_114)">
<path d="M12.7391 5.50385L17.5413 6.14147C17.939 6.1926 18.2732 6.44525 18.4002 6.79112C18.5271 7.14001 18.4235 7.51898 18.1362 7.77763L14.654 10.8515L15.4761 15.2607C15.5429 15.6216 15.3791 15.9885 15.045 16.2021C14.7141 16.4156 14.2763 16.4427 13.9188 16.2712L9.62784 14.211L5.34027 16.2712C4.97935 16.4427 4.54157 16.4156 4.21073 16.2021C3.87989 15.9885 3.7128 15.6216 3.78298 15.2607L4.60507 10.8515L1.12221 7.77763C0.83448 7.51898 0.732219 7.14001 0.858541 6.79112C0.984528 6.44525 1.31771 6.1926 1.71839 6.14147L6.5166 5.50385L8.66874 1.52383C8.84585 1.19251 9.22014 0.982178 9.62784 0.982178C10.0389 0.982178 10.4132 1.19251 10.5903 1.52383L12.7391 5.50385Z" fill="#FD9346"/>
</g>
<g clip-path="url(#clip1_61_114)">
<path d="M36.8002 5.50385L41.6025 6.14147C42.0001 6.1926 42.3343 6.44525 42.4613 6.79112C42.5883 7.14001 42.4847 7.51898 42.1973 7.77763L38.7151 10.8515L39.5372 15.2607C39.604 15.6216 39.4403 15.9885 39.1061 16.2021C38.7753 16.4156 38.3375 16.4427 37.9799 16.2712L33.689 14.211L29.4014 16.2712C29.0405 16.4427 28.6027 16.4156 28.2719 16.2021C27.941 15.9885 27.774 15.6216 27.8441 15.2607L28.6662 10.8515L25.1834 7.77763C24.8956 7.51898 24.7934 7.14001 24.9197 6.79112C25.0457 6.44525 25.3789 6.1926 25.7796 6.14147L30.5778 5.50385L32.7299 1.52383C32.907 1.19251 33.2813 0.982178 33.689 0.982178C34.1 0.982178 34.4743 1.19251 34.6514 1.52383L36.8002 5.50385Z" fill="#FD9346"/>
</g>
<g clip-path="url(#clip2_61_114)">
<path d="M60.8615 5.50385L65.6637 6.14147C66.0614 6.1926 66.3955 6.44525 66.5225 6.79112C66.6495 7.14001 66.5459 7.51898 66.2585 7.77763L62.7763 10.8515L63.5984 15.2607C63.6653 15.6216 63.5015 15.9885 63.1673 16.2021C62.8365 16.4156 62.3987 16.4427 62.0411 16.2712L57.7502 14.211L53.4626 16.2712C53.1017 16.4427 52.6639 16.4156 52.3331 16.2021C52.0023 15.9885 51.8352 15.6216 51.9054 15.2607L52.7274 10.8515L49.2446 7.77763C48.9569 7.51898 48.8546 7.14001 48.9809 6.79112C49.1069 6.44525 49.4401 6.1926 49.8408 6.14147L54.639 5.50385L56.7911 1.52383C56.9682 1.19251 57.3425 0.982178 57.7502 0.982178C58.1613 0.982178 58.5356 1.19251 58.7127 1.52383L60.8615 5.50385Z" fill="#FD9346"/>
</g>
<g clip-path="url(#clip3_61_114)">
<path d="M84.9227 5.50385L89.7249 6.14147C90.1226 6.1926 90.4568 6.44525 90.5837 6.79112C90.7107 7.14001 90.6071 7.51898 90.3197 7.77763L86.8376 10.8515L87.6596 15.2607C87.7265 15.6216 87.5627 15.9885 87.2285 16.2021C86.8977 16.4156 86.4599 16.4427 86.1024 16.2712L81.8114 14.211L77.5239 16.2712C77.1629 16.4427 76.7252 16.4156 76.3943 16.2021C76.0635 15.9885 75.8964 15.6216 75.9666 15.2607L76.7887 10.8515L73.3058 7.77763C73.0181 7.51898 72.9158 7.14001 73.0421 6.79112C73.1681 6.44525 73.5013 6.1926 73.902 6.14147L78.7002 5.50385L80.8523 1.52383C81.0294 1.19251 81.4037 0.982178 81.8114 0.982178C82.2225 0.982178 82.5968 1.19251 82.7739 1.52383L84.9227 5.50385Z" fill="#FD9346"/>
</g>
<g clip-path="url(#clip4_61_114)">
<path d="M108.984 5.50385L113.786 6.14147C114.184 6.1926 114.518 6.44525 114.645 6.79112C114.772 7.14001 114.668 7.51898 114.381 7.77763L110.899 10.8515L111.721 15.2607C111.788 15.6216 111.624 15.9885 111.29 16.2021C110.959 16.4156 110.521 16.4427 110.164 16.2712L105.873 14.211L101.585 16.2712C101.224 16.4427 100.786 16.4156 100.455 16.2021C100.125 15.9885 99.9576 15.6216 100.028 15.2607L100.85 10.8515L97.367 7.77763C97.0792 7.51898 96.977 7.14001 97.1033 6.79112C97.2293 6.44525 97.5625 6.1926 97.9631 6.14147L102.761 5.50385L104.913 1.52383C105.091 1.19251 105.465 0.982178 105.873 0.982178C106.284 0.982178 106.658 1.19251 106.835 1.52383L108.984 5.50385Z" fill="#FD9346"/>
</g>
<defs>
<clipPath id="clip0_61_114">
<rect width="19.249" height="15.3992" fill="white" transform="translate(0 0.983398)"/>
</clipPath>
<clipPath id="clip1_61_114">
<rect width="19.249" height="15.3992" fill="white" transform="translate(24.0612 0.983398)"/>
</clipPath>
<clipPath id="clip2_61_114">
<rect width="19.249" height="15.3992" fill="white" transform="translate(48.1224 0.983398)"/>
</clipPath>
<clipPath id="clip3_61_114">
<rect width="19.249" height="15.3992" fill="white" transform="translate(72.1836 0.983398)"/>
</clipPath>
<clipPath id="clip4_61_114">
<rect width="19.249" height="15.3992" fill="white" transform="translate(96.2448 0.983398)"/>
</clipPath>
</defs>
</svg>
