<svg width="59" height="54" viewBox="0 0 59 54" fill="none" xmlns="http://www.w3.org/2000/svg">
<path d="M58.0719 27.0721C58.009 42.0875 45.058 54.0426 28.9043 53.9999C12.7917 53.9571 -0.0698638 41.8085 0.000285594 26.7009C0.068016 11.8925 13.2029 -0.076141 29.3058 0.000364744C45.2539 0.0768704 58.1348 12.1985 58.0719 27.0721ZM11.812 9.63108C16.9716 14.2372 22.0683 18.787 27.2182 23.3841C29.7557 20.5241 32.1868 17.7857 34.6444 15.0135C36.5143 16.4491 38.3067 17.8239 40.1451 19.2348C37.5254 22.205 34.9758 25.0897 32.3948 28.015C37.7866 32.8258 43.0938 37.5624 48.4058 42.3013C56.427 33.9981 57.264 19.5521 46.9133 10.0946C36.386 0.477399 20.5299 1.72624 11.812 9.63108ZM9.38095 12.032C1.28717 20.7087 0.808214 36.0706 12.8957 45.339C24.3566 54.1259 39.342 50.9374 45.8514 44.5942C40.6289 39.9318 35.404 35.2695 30.1379 30.5711C28.5898 32.306 27.1287 33.9441 25.6169 35.6363C23.7446 34.2052 21.9522 32.8348 20.1138 31.4307C21.7659 29.5586 23.3407 27.7719 24.9541 25.9403C19.7268 21.2689 14.5841 16.6786 9.38095 12.032ZM31.5264 27.1734C34.0034 24.3742 36.374 21.6965 38.8026 18.9535C38.3599 18.6228 38.0019 18.355 37.5907 18.049C35.15 20.8077 32.7818 23.4876 30.3798 26.2058C30.7838 26.5478 31.1031 26.8179 31.5264 27.1734ZM23.8632 33.5549C24.3373 33.8946 24.7025 34.1534 25.0993 34.4347C26.5047 32.8438 27.8448 31.3272 29.1244 29.8803C28.7809 29.4506 28.5221 29.1243 28.1737 28.6877C26.6982 30.3574 25.3291 31.9032 23.8632 33.5549Z" fill="#FE6601"/>
<path d="M39.6057 16.2618C38.9913 15.7893 38.4978 15.409 37.8955 14.9477C39.2452 13.3996 40.5733 11.8807 41.8093 10.4631C41.8118 9.67558 40.0048 9.63058 41.2264 8.48975C42.7285 9.63508 44.2065 10.7624 45.757 11.946C45.5248 12.207 45.3362 12.4185 45.1305 12.6503C44.6588 12.3195 44.2452 12.0293 43.7009 11.6445C42.3584 13.1633 41.0159 14.6755 39.6057 16.2618Z" fill="#FE6601"/>
<path d="M33.6188 13.5688C33.9405 13.3033 34.1437 13.1345 34.3856 12.9365C37.09 15.0044 39.7 17.0003 42.3657 19.0367C42.1407 19.2955 41.9496 19.516 41.7271 19.7725C39.0638 17.7361 36.4562 15.7402 33.6188 13.5688Z" fill="#FE6601"/>
<path d="M32.7455 42.4255C31.3425 42.9498 30.0532 43.429 28.672 43.9443C28.2269 42.9115 27.7577 41.9642 27.4093 40.9831C27.0175 39.8805 27.6029 38.8387 28.7301 38.4382C29.7847 38.0624 30.9265 38.4652 31.449 39.4867C31.911 40.3913 32.2714 41.3409 32.7455 42.4255Z" fill="#FE6601"/>
<path d="M23.5028 43.035C23.1496 44.4211 22.8351 45.6497 22.4965 46.9705C21.3015 46.714 20.1961 46.5318 19.1293 46.2325C17.9876 45.9107 17.4119 44.8891 17.661 43.8406C17.8932 42.8685 18.8584 42.2249 20.0025 42.2924C20.242 42.3059 20.4815 42.3487 20.7161 42.4027C21.6087 42.5985 22.4989 42.8055 23.5028 43.035Z" fill="#FE6601"/>
<path d="M28.8583 44.3759C30.2177 43.8651 31.4756 43.3903 32.9366 42.8413C33.4083 44.0339 34.0034 45.1432 34.2646 46.3156C34.4775 47.2764 33.8268 48.0437 32.7939 48.3812C31.7949 48.7075 30.7547 48.3092 30.2032 47.4429C30.121 47.3146 30.0532 47.1774 29.9928 47.0401C29.6348 46.2076 29.2816 45.3727 28.8583 44.3759ZM32.673 43.3791C31.5094 43.8224 30.5153 44.2004 29.4316 44.6122C29.8138 45.5033 30.1113 46.3493 30.5346 47.1369C30.9845 47.9717 31.7634 48.3272 32.7431 47.9559C33.7083 47.5914 34.0566 46.8489 33.7591 45.9488C33.4833 45.1005 33.0672 44.2949 32.673 43.3791Z" fill="#FE6601"/>
<path d="M22.9875 47.0988C23.3213 45.7487 23.6261 44.5201 23.9769 43.1025C25.2517 43.4041 26.5095 43.6088 27.6899 44.0071C28.6575 44.3334 29.0905 45.4382 28.7712 46.3743C28.4398 47.3509 27.6609 47.9021 26.5845 47.7896C25.404 47.6659 24.2454 47.3486 22.9875 47.0988ZM24.3083 43.5998C24.0349 44.7182 23.7906 45.7105 23.5318 46.7748C24.584 47.0021 25.5032 47.2586 26.4442 47.3891C27.3948 47.5196 28.0842 47.0876 28.3576 46.2213C28.6358 45.337 28.2511 44.6282 27.3658 44.3221C26.4103 43.9936 25.3823 43.8451 24.3083 43.5998Z" fill="#FE6601"/>
<path d="M14.7075 42.5673C16.4297 40.5219 18.1496 38.4765 19.8719 36.4311C20.1694 36.0778 20.4379 35.6953 20.7814 35.387C20.987 35.2047 21.3136 35.1395 21.5869 35.0225C21.5144 35.2677 21.5168 35.5737 21.3547 35.7515C19.2212 38.0849 17.0635 40.3981 14.9107 42.718C14.8429 42.6685 14.7752 42.619 14.7075 42.5673Z" fill="#FE6601"/>
<path d="M22.748 35.1662C21.0911 34.0456 21.0911 34.0456 21.645 33.3818C23.2826 34.3224 23.3649 34.4462 22.748 35.1662Z" fill="#FE6601"/>
</svg>
