<svg width="70" height="70" viewBox="0 0 70 70" fill="none" xmlns="http://www.w3.org/2000/svg">
<g clip-path="url(#clip0_151_647)">
<path d="M37.0813 56.2613C37.3357 52.7217 37.5247 49.5017 37.807 46.2887C38.4767 38.6633 36.575 36.5027 28.987 36.2577C25.501 36.1457 22.0197 35.9287 19.145 35.7887C18.046 34.5287 17.2667 33.6397 16.2773 32.5057C17.0193 31.6657 17.8523 30.674 18.7367 29.7337C20.3023 28.07 21.161 26.3247 20.9253 23.8327C20.5847 20.209 21.98 17.0753 25.1557 15.0267C32.2093 10.472 46.0413 11.207 51.674 21.399C56.1563 29.5097 53.0063 40.3433 44.7137 45.2387C43.6333 45.8757 43.2063 46.529 43.2017 47.7563C43.1947 49.6557 42.9613 51.555 42.8587 53.4543C42.791 54.7097 42.1843 55.4773 40.9453 55.6873C39.7647 55.8857 38.5747 56.042 37.0813 56.2613Z" fill="#FE6601"/>
<path d="M28.0514 46.8417C25.3797 46.599 22.9694 46.5267 20.6174 46.13C17.7707 45.6494 17.4884 44.9797 18.1884 42.2637C18.3774 41.5334 18.2164 40.712 18.2164 39.7974C22.617 40.0214 27.1647 40.208 31.703 40.5137C32.984 40.6 33.8124 41.4984 33.7447 42.8424C33.5207 47.2827 33.2454 51.7184 32.907 56.1517C32.879 56.5227 32.2584 57.092 31.8524 57.155C27.216 57.8574 27.1577 58.5317 27.601 53.7064C27.8087 51.436 27.9044 49.1564 28.0514 46.8417Z" fill="#FE6601"/>
<path d="M35 65.4712C18.1977 65.4712 4.52667 51.8025 4.52667 35.0002C4.52667 18.1979 18.1977 4.52686 35 4.52686C51.8023 4.52686 65.471 18.1955 65.471 35.0002C65.471 51.8025 51.8023 65.4712 35 65.4712ZM35 7.09352C19.614 7.09352 7.09334 19.6142 7.09334 35.0002C7.09334 50.3862 19.6117 62.9045 35 62.9045C50.386 62.9045 62.9043 50.3862 62.9043 35.0002C62.9043 19.6142 50.386 7.09352 35 7.09352Z" fill="#FE6601"/>
</g>
<defs>
<clipPath id="clip0_151_647">
<rect width="70" height="70" fill="white"/>
</clipPath>
</defs>
</svg>
